<?xml version="1.0" encoding="utf-8"?>
<!-- Generator: Adobe Illustrator 21.1.0, SVG Export Plug-In . SVG Version: 6.00 Build 0)  -->
<svg version="1.1" id="Capa_1" xmlns="http://www.w3.org/2000/svg" xmlns:xlink="http://www.w3.org/1999/xlink" x="0px" y="0px"
	 viewBox="0 0 15 15" style="enable-background:new 0 0 15 15;" xml:space="preserve">
<style type="text/css">
	.st0{fill:#585553;}
</style>
<g>
	<path class="st0" d="M11.2,0H9.3C7.1,0,5.7,1.4,5.7,3.7v1.7h-2c-0.2,0-0.3,0.1-0.3,0.3v2.5c0,0.2,0.1,0.3,0.3,0.3h2v6.2
		C5.7,14.9,5.8,15,6,15h2.6c0.2,0,0.3-0.1,0.3-0.3V8.5h2.3c0.2,0,0.3-0.1,0.3-0.3V5.7c0-0.1,0-0.2-0.1-0.2c-0.1-0.1-0.1-0.1-0.2-0.1
		H8.9V4c0-0.7,0.2-1,1.1-1h1.3c0.2,0,0.3-0.1,0.3-0.3V0.3C11.6,0.1,11.4,0,11.2,0z"/>
</g>
</svg>
