<?xml version="1.0" encoding="utf-8"?>
<!-- Generator: Adobe Illustrator 19.2.0, SVG Export Plug-In . SVG Version: 6.00 Build 0)  -->
<svg version="1.1" id="Layer_1" xmlns="http://www.w3.org/2000/svg" xmlns:xlink="http://www.w3.org/1999/xlink" x="0px" y="0px"
	 viewBox="0 0 2000 2000" style="enable-background:new 0 0 2000 2000;" xml:space="preserve">
<style type="text/css">
	.st0{fill:#FFFFFF;}
	.st1{fill:none;stroke:#FFFFFF;stroke-width:5;stroke-miterlimit:10;}
	.st2{fill:none;}
	.st3{fill:none;stroke:#000000;stroke-width:20;stroke-miterlimit:10;}
</style>
<rect class="st0" width="2000" height="2000"/>
<path id="SVGID_x5F_1_x5F_" class="st2" d="M1807.6,1000c0,443.3-359.3,802.6-802.6,802.6c-443.3,0-802.6-359.3-802.6-802.6
	c0-443.3,359.3-802.6,802.6-802.6C1448.3,197.4,1807.6,556.7,1807.6,1000z"/>
<text><textPath  xlink:href="#SVGID_x5F_1_x5F_" startOffset="28600%">
<tspan  style="font-family:'Montserrat-Bold'; font-size:226.9872px; letter-spacing:600;">JOSH-SEAS</tspan></textPath>
</text>
<path id="SVGID_x5F_2_x5F_" class="st2" d="M1857.5,1000c0-470.8-381.6-852.4-852.4-852.4c-470.8,0-852.4,381.7-852.4,852.4
	c0,470.8,381.6,852.4,852.4,852.4C1475.8,1852.4,1857.5,1470.8,1857.5,1000z"/>
<text><textPath  xlink:href="#SVGID_x5F_2_x5F_" startOffset="7265.917%">
<tspan  style="font-family:'Montserrat-ExtraBold'; font-size:82.7836px; letter-spacing:900;">THE ROLLING STONE</tspan></textPath>
</text>
<polygon points="90.9,1141.2 73.6,1087.8 119,1054.8 164.4,1087.8 147.1,1141.2 "/>
<polygon points="1874.8,1141.2 1857.5,1087.8 1902.9,1054.8 1948.3,1087.8 1931,1141.2 "/>
<g>
	<g>
		<path class="st3" d="M1069.6,1041.1c14.6,14.6,23.6,34.8,23.6,57.1c0,44.6-36.1,80.7-80.7,80.7c-22.3,0-42.5-9-57.1-23.6"/>
		<path class="st3" d="M919.2,1078.4c0-40.6,32.9-73.5,73.5-73.5"/>
		<g>
			<path class="st3" d="M1006.6,949.6c78.8,0,142.7,63.9,142.7,142.6c0,78.8-63.9,142.7-142.7,142.7c-78.8,0-142.6-63.9-142.6-142.7
				"/>
			<path class="st3" d="M1008.1,949.6c-50.9,0-92.2-41.3-92.2-92.2c0-50.9,41.3-92.2,92.2-92.2c50.9,0,92.2,41.3,92.2,92.2"/>
		</g>
		<ellipse class="st3" cx="1006.6" cy="1000" rx="297.1" ry="297.1"/>
		<path class="st3" d="M683.1,1147.1c55.9,122.8,179.7,208.2,323.5,208.2c196.2,0,355.3-159.1,355.3-355.3V703"/>
	</g>
	<g>
		<polyline class="st3" points="488,761.6 488,629.3 620.3,629.3 		"/>
		<polyline class="st3" points="620.3,1378.3 488,1378.3 488,1246 		"/>
		<polyline class="st3" points="1525.2,1246 1525.2,1378.3 1392.9,1378.3 		"/>
		<polyline class="st3" points="1392.9,621.7 1525.2,621.7 1525.2,754 		"/>
	</g>
</g>
</svg>
