<?xml version="1.0" encoding="utf-8"?>
<!-- Generator: Adobe Illustrator 21.1.0, SVG Export Plug-In . SVG Version: 6.00 Build 0)  -->
<svg version="1.1" id="Capa_1" xmlns="http://www.w3.org/2000/svg" xmlns:xlink="http://www.w3.org/1999/xlink" x="0px" y="0px"
	 viewBox="0 0 15 15" style="enable-background:new 0 0 15 15;" xml:space="preserve">
<style type="text/css">
	.st0{fill:#585553;}
</style>
<g>
	<g>
		<g>
			<path class="st0" d="M13.3,4.2c-0.4-3-3.4-4.5-6.5-4.1c-2.5,0.3-5,2.3-5.1,5.2C1.6,7,2.1,8.3,3.8,8.7c0.7-1.3-0.2-1.6-0.4-2.5
				c-0.6-3.8,4.4-6.4,7-3.7C12.2,4.3,11,10,8.1,9.4c-2.8-0.6,1.4-5.1-0.9-6C5.4,2.7,4.5,5.6,5.3,7c-0.5,2.5-1.6,4.8-1.2,8
				c1.4-1,1.9-3,2.3-5.1c0.7,0.4,1.1,0.9,2,1C11.8,11.1,13.7,7.5,13.3,4.2z"/>
		</g>
	</g>
</g>
</svg>
