<?xml version="1.0" encoding="utf-8"?>
<!-- Generator: Adobe Illustrator 21.1.0, SVG Export Plug-In . SVG Version: 6.00 Build 0)  -->
<svg version="1.1" id="Capa_1" xmlns="http://www.w3.org/2000/svg" xmlns:xlink="http://www.w3.org/1999/xlink" x="0px" y="0px"
	 viewBox="0 0 15 15" style="enable-background:new 0 0 15 15;" xml:space="preserve">
<style type="text/css">
	.st0{fill:#585553;}
</style>
<g>
	<g>
		<path class="st0" d="M15,2.8c-0.6,0.2-1.1,0.4-1.8,0.5c0.6-0.4,1.1-1,1.4-1.7c-0.6,0.4-1.3,0.6-2,0.7c-0.6-0.6-1.4-1-2.2-1
			c-1.7,0-3.1,1.4-3.1,3.1c0,0.2,0,0.5,0.1,0.7C4.8,5.1,2.6,3.8,1,2C0.8,2.4,0.6,3,0.6,3.5c0,1.1,0.5,2,1.4,2.6
			c-0.5,0-1-0.2-1.4-0.4l0,0c0,1.5,1.1,2.7,2.5,3C2.8,8.8,2.5,8.9,2.3,8.9s-0.4,0-0.6-0.1c0.4,1.2,1.5,2.1,2.9,2.1
			c-1.1,0.8-2.4,1.3-3.8,1.3c-0.2,0-0.5,0-0.7,0c1.4,0.9,3,1.4,4.7,1.4c5.7,0,8.8-4.7,8.8-8.8V4.4C14.1,4,14.6,3.5,15,2.8z"/>
	</g>
</g>
</svg>
